<?xml version="1.0" standalone="no"?>
<!DOCTYPE svg PUBLIC "-//W3C//DTD SVG 20010904//EN"
 "http://www.w3.org/TR/2001/REC-SVG-20010904/DTD/svg10.dtd">
<svg version="1.0" xmlns="http://www.w3.org/2000/svg"
 width="650.000000pt" height="650.000000pt" viewBox="0 0 650.000000 650.000000"
 preserveAspectRatio="xMidYMid meet">
<metadata>
Created by potrace 1.14, written by Peter Selinger 2001-2017
</metadata>
<g transform="translate(0.000000,650.000000) scale(0.100000,-0.100000)"
fill="#000000" stroke="none">
<path d="M3089 6316 c-2 -2 -33 -6 -69 -10 -77 -7 -126 -14 -160 -21 -28 -5
-85 -16 -115 -21 -11 -1 -35 -7 -52 -13 -18 -5 -33 -7 -33 -4 0 3 -7 0 -15 -7
-8 -7 -15 -9 -15 -5 0 4 -6 3 -12 -3 -7 -6 -17 -11 -23 -11 -28 -1 -105 -24
-105 -31 0 -5 -8 -7 -17 -6 -27 4 -294 -111 -378 -163 -22 -13 -41 -24 -43
-22 -1 1 -27 -14 -57 -34 -31 -19 -60 -35 -65 -35 -6 0 -10 -4 -10 -10 0 -5
-4 -10 -10 -10 -11 0 -111 -73 -187 -137 -12 -10 -31 -25 -43 -34 -104 -81
-336 -338 -428 -475 -67 -100 -91 -141 -92 -151 0 -6 -4 -13 -8 -15 -9 -4
-112 -212 -112 -227 0 -6 -4 -11 -10 -11 -5 0 -10 -9 -10 -19 0 -11 -5 -23
-10 -26 -6 -3 -10 -13 -10 -22 0 -8 -6 -29 -14 -46 -27 -61 -95 -296 -110
-382 -3 -16 -10 -55 -15 -85 -36 -205 -36 -552 -1 -770 24 -141 114 -470 139
-505 4 -5 16 -32 26 -60 10 -27 43 -97 73 -155 31 -58 60 -115 66 -127 6 -13
14 -23 19 -23 4 0 7 -4 7 -10 0 -15 117 -183 187 -267 79 -96 199 -220 273
-282 30 -25 62 -54 71 -63 9 -10 21 -18 27 -18 6 0 15 -6 19 -13 4 -7 24 -24
43 -37 19 -13 40 -29 47 -35 35 -29 43 -35 47 -35 3 0 36 -19 73 -43 37 -24
86 -52 108 -62 22 -11 42 -23 45 -26 13 -17 370 -165 370 -154 0 3 10 0 23 -7
12 -6 27 -13 32 -14 6 -1 30 -7 55 -14 25 -7 52 -14 60 -16 114 -28 136 -32
200 -40 25 -3 57 -7 71 -9 100 -17 405 -23 519 -11 25 3 70 7 100 10 30 3 55
5 55 6 0 2 26 7 72 14 21 3 49 8 63 11 14 3 34 7 45 9 11 2 38 9 60 15 22 6
43 11 47 11 5 0 33 9 63 21 30 11 59 18 65 14 5 -3 10 -2 10 3 0 6 12 13 28
17 37 9 221 90 291 127 131 71 166 91 169 99 2 5 8 9 13 9 15 0 119 72 119 82
0 5 5 6 10 3 6 -3 10 -2 10 4 0 5 8 12 18 15 9 3 31 18 47 33 17 16 52 45 78
67 50 39 198 184 253 247 142 161 297 405 388 609 112 253 171 482 201 785 5
54 6 340 0 390 -4 47 -23 193 -31 250 -8 58 -49 218 -79 309 -54 164 -174 426
-224 489 -8 9 -10 17 -5 17 5 0 4 4 -2 8 -10 7 -74 99 -74 107 0 3 -6 13 -14
22 -8 10 -43 54 -77 98 -82 105 -98 123 -200 224 -88 89 -166 158 -225 200
-19 13 -34 28 -34 33 0 4 -5 8 -11 8 -6 0 -28 14 -49 30 -21 17 -42 30 -48 30
-6 0 -12 4 -14 8 -7 18 -385 222 -411 222 -3 0 -16 4 -29 9 -13 5 -26 8 -29 7
-3 0 -13 5 -22 13 -10 7 -17 10 -17 6 0 -4 -6 -2 -14 4 -7 6 -25 12 -40 13
-14 1 -26 6 -26 10 0 4 -3 7 -7 6 -5 -1 -46 8 -93 21 -47 13 -92 25 -100 26
-8 2 -15 4 -15 5 0 1 -9 3 -20 5 -11 2 -45 9 -75 15 -30 6 -59 11 -65 9 -5 -1
-21 1 -35 4 -14 4 -45 9 -70 13 -50 7 -415 15 -421 10z m291 -110 c63 -3 126
-8 140 -10 14 -3 45 -7 70 -10 45 -6 82 -12 130 -22 14 -3 32 -7 40 -8 8 -1
31 -6 50 -11 19 -5 38 -10 43 -11 4 -1 9 -3 12 -4 3 -1 8 -3 13 -5 4 -1 14 -4
22 -7 8 -3 47 -15 85 -27 82 -26 178 -63 185 -72 3 -3 18 -9 33 -13 16 -4 68
-29 117 -56 49 -27 104 -58 122 -68 42 -23 113 -68 136 -87 9 -7 40 -31 68
-52 314 -234 575 -566 732 -933 70 -164 114 -302 136 -425 3 -16 8 -41 11 -55
3 -14 7 -36 10 -50 3 -14 7 -34 9 -45 25 -129 25 -537 0 -670 -2 -10 -6 -35
-9 -55 -3 -20 -8 -47 -11 -60 -3 -14 -7 -36 -10 -50 -21 -103 -73 -274 -109
-355 -7 -16 -23 -55 -36 -85 -64 -154 -222 -413 -316 -520 -7 -8 -30 -35 -51
-59 -74 -88 -236 -243 -307 -296 -22 -16 -42 -32 -45 -35 -21 -27 -318 -210
-341 -210 -5 0 -9 -5 -9 -12 0 -6 -3 -8 -7 -5 -3 4 -11 3 -18 -3 -16 -13 -245
-109 -245 -103 0 3 -6 1 -12 -4 -7 -5 -40 -18 -73 -27 -33 -10 -71 -21 -85
-26 -14 -5 -43 -12 -65 -16 -44 -8 -54 -11 -57 -14 -2 -1 -12 -3 -23 -4 -19
-2 -59 -10 -115 -21 -44 -9 -172 -18 -262 -19 -49 -1 -88 -5 -88 -9 0 -5 -4
-6 -9 -3 -5 4 -51 8 -103 11 -51 2 -115 7 -143 10 -27 3 -68 8 -90 10 -22 2
-60 9 -85 15 -40 9 -184 44 -235 56 -11 3 -24 6 -30 7 -16 4 -128 48 -148 58
-10 5 -22 7 -27 4 -6 -4 -10 -2 -10 3 0 9 -91 48 -99 43 -2 -2 -7 1 -10 6 -3
5 -38 25 -78 46 -72 36 -224 125 -233 136 -3 3 -25 20 -50 36 -47 32 -56 39
-135 105 -196 165 -390 392 -504 590 -316 551 -403 1144 -255 1750 43 173 119
374 196 514 21 38 38 73 38 77 0 5 5 9 10 9 6 0 10 5 10 12 0 16 101 165 174
258 98 123 178 208 286 300 41 36 77 67 80 70 25 26 246 179 263 183 6 1 16 6
22 10 14 12 79 51 85 52 3 1 29 13 58 28 28 15 52 24 52 20 0 -5 4 -3 8 3 6
10 142 70 177 78 6 2 17 6 25 9 24 10 143 47 168 52 12 3 31 7 42 10 67 17 76
19 140 30 58 10 92 14 147 19 28 2 55 6 60 8 4 3 48 6 98 7 49 1 91 4 93 6 2
2 9 2 15 0 7 -2 64 -6 127 -9z"/>
<path d="M2365 4599 c-16 -5 -41 -11 -55 -13 -69 -12 -256 -89 -280 -116 -3
-3 -25 -21 -50 -40 -52 -41 -114 -100 -124 -121 -17 -34 -35 -62 -43 -68 -19
-13 -64 -134 -66 -178 -1 -13 -6 -23 -11 -23 -6 0 -4 -5 4 -10 11 -7 12 -10 2
-10 -11 0 -13 -15 -9 -67 3 -38 10 -85 15 -105 5 -20 7 -39 4 -42 -3 -4 0 -6
6 -6 7 0 12 -6 12 -13 0 -23 41 -100 81 -154 39 -53 86 -103 95 -103 17 0 49
-49 47 -73 -2 -28 -50 -126 -68 -139 -5 -4 -6 -8 -1 -8 5 0 4 -6 -1 -12 -14
-19 -14 -61 0 -79 30 -40 79 -44 176 -15 28 8 53 15 56 16 5 0 10 1 23 5 4 1
21 8 37 15 17 7 35 14 41 15 23 5 123 54 128 64 4 5 29 7 59 5 50 -5 117 -7
127 -4 3 0 33 3 66 5 101 7 200 34 309 85 90 43 144 80 209 144 47 46 127 151
116 151 -3 0 5 15 18 33 13 17 21 32 18 32 -3 0 2 19 10 43 8 23 18 71 21 107
7 79 7 76 -2 125 -5 22 -9 47 -10 55 -6 39 -73 180 -87 180 -4 0 -8 6 -8 14 0
8 -3 16 -7 18 -5 2 -27 24 -50 50 -23 25 -44 44 -47 41 -3 -3 -8 2 -12 11 -3
9 -13 16 -21 16 -8 0 -11 5 -8 10 3 6 1 10 -5 10 -7 0 -24 9 -39 19 -40 29
-122 71 -137 71 -8 0 -14 5 -14 12 0 6 -2 9 -6 6 -3 -3 -26 1 -52 9 -26 8 -63
17 -82 20 -19 3 -39 9 -45 13 -14 10 -303 10 -340 -1z m250 -285 c35 -9 107
-59 98 -68 -3 -3 -2 -6 4 -6 15 0 56 -89 49 -106 -3 -7 -1 -16 4 -19 6 -4 6
-15 -2 -28 -6 -12 -11 -23 -10 -24 7 -11 0 -43 -8 -38 -5 3 -10 -1 -10 -10 0
-9 -18 -35 -40 -57 -22 -23 -40 -38 -40 -33 0 4 -10 -5 -22 -21 -13 -16 -26
-30 -30 -32 -4 -2 -5 -9 -2 -16 9 -23 -25 -47 -64 -44 -48 3 -59 15 -54 58 4
37 47 120 62 120 17 0 89 78 95 103 13 51 -32 108 -87 112 -3 0 -10 3 -13 7
-4 4 -16 3 -27 -3 -10 -5 -22 -8 -27 -5 -11 7 -71 -50 -71 -67 0 -7 -6 -22
-14 -33 -12 -17 -22 -20 -58 -15 -40 6 -43 8 -42 36 1 17 3 40 6 51 6 30 69
111 93 120 88 31 142 36 210 18z m-24 -598 c20 -15 41 -66 28 -66 -6 0 -8 -4
-5 -8 7 -12 -24 -53 -35 -47 -5 4 -9 1 -9 -5 0 -6 -10 -8 -22 -6 -40 7 -58 18
-58 32 0 8 -4 14 -8 14 -17 0 -6 52 15 75 22 25 69 31 94 11z"/>
<path d="M3858 4605 c-2 -2 -19 -6 -39 -9 -20 -3 -49 -10 -65 -16 -16 -6 -31
-11 -34 -11 -10 1 -46 -11 -87 -30 -24 -10 -47 -19 -51 -19 -5 0 -34 -18 -66
-40 -31 -22 -61 -40 -66 -40 -5 0 -16 -10 -25 -22 -8 -13 -18 -22 -20 -20 -3
1 -4 0 -2 -3 1 -2 -8 -11 -20 -20 -21 -14 -21 -16 -5 -48 8 -17 23 -37 31 -44
9 -7 13 -13 9 -13 -4 0 2 -21 13 -46 35 -82 49 -158 49 -254 0 -70 -12 -175
-20 -175 -1 0 -3 -8 -5 -18 -2 -10 -7 -26 -11 -35 -4 -9 -8 -20 -8 -24 -1 -3
-4 -10 -8 -14 -5 -4 -8 -14 -8 -21 0 -8 -12 -30 -26 -49 -15 -19 -22 -34 -18
-34 5 0 3 -4 -5 -9 -10 -6 -10 -13 -3 -28 12 -22 123 -109 135 -105 4 1 7 -2
7 -6 0 -15 139 -77 240 -106 91 -26 286 -40 357 -25 22 5 36 2 44 -7 6 -8 18
-14 25 -14 8 0 14 -4 14 -10 0 -5 3 -9 8 -8 4 1 25 -6 47 -16 163 -73 308
-101 349 -67 18 15 38 71 25 71 -5 0 -9 11 -9 25 0 14 -4 25 -8 25 -12 0 -62
115 -62 140 0 13 27 47 70 88 39 37 70 73 70 80 0 7 4 11 9 8 7 -5 36 43 31
53 -1 2 3 7 10 11 6 4 12 13 13 21 2 8 7 21 12 29 9 15 15 34 17 58 1 6 4 12
8 12 4 0 7 6 7 13 1 23 15 112 18 116 2 1 0 14 -6 28 -6 17 -6 22 3 17 6 -4 8
-3 5 3 -3 5 -9 25 -12 44 -3 19 -10 50 -15 69 -5 19 -9 39 -9 44 0 5 -3 12 -8
15 -4 3 -16 22 -25 41 -9 19 -25 49 -35 65 -21 36 -158 176 -165 170 -3 -3
-13 4 -23 15 -10 11 -24 20 -31 20 -7 0 -17 8 -23 18 -5 9 -12 16 -15 14 -4
-1 -23 5 -44 14 -88 37 -112 45 -196 63 -64 14 -127 20 -217 19 -70 0 -129 -1
-131 -3z m489 -465 c4 -14 6 -34 4 -45 -3 -21 -323 -345 -356 -362 -11 -5 -26
-8 -32 -7 -7 1 -18 2 -24 3 -17 2 -209 199 -219 226 -13 35 3 70 38 83 41 14
67 -4 174 -115 l31 -33 140 140 c77 77 143 140 146 141 23 3 44 8 48 13 10 10
44 -19 50 -44z"/>
<path d="M4806 1022 c-4 -4 -15 -7 -24 -7 -15 0 -17 -14 -20 -96 l-3 -96 113
1 113 1 3 93 c1 50 -1 92 -5 93 -4 1 -20 2 -34 3 -14 2 -31 6 -37 10 -7 4 -12
3 -12 -2 0 -10 -60 -10 -76 1 -6 3 -14 3 -18 -1z"/>
<path d="M1034 992 l-40 -3 0 -412 1 -412 175 1 c206 1 244 4 287 21 18 7 35
13 38 13 19 -1 94 49 124 83 9 10 26 30 39 43 12 14 22 32 22 40 0 7 4 14 10
14 5 0 9 3 8 8 -1 4 4 25 12 47 15 42 19 217 6 269 -18 73 -72 158 -132 206
-38 30 -131 70 -179 76 -11 1 -20 3 -20 4 0 2 -314 5 -351 2z m351 -222 c8 -7
15 -10 15 -6 0 14 52 -41 65 -69 34 -76 37 -124 10 -206 -16 -47 -78 -114 -96
-103 -4 2 -10 0 -13 -4 -9 -15 -133 -15 -137 0 -4 11 -3 332 0 390 1 15 11 17
71 14 38 -2 76 -9 85 -16z"/>
<path d="M3469 996 c-2 -2 -20 -7 -41 -10 -73 -11 -179 -83 -235 -158 -98
-134 -107 -308 -25 -460 14 -26 30 -48 34 -48 4 0 8 -4 8 -10 0 -13 72 -79 86
-80 6 0 17 -7 24 -14 19 -24 151 -61 205 -58 62 4 117 13 147 26 31 14 51 13
68 -4 13 -13 36 -16 118 -15 56 1 104 4 107 6 2 3 -12 23 -33 45 -88 96 -84
90 -69 106 15 14 55 88 54 98 0 3 6 16 13 30 19 36 22 177 4 236 -27 91 -46
123 -114 193 -34 36 -120 97 -120 86 0 -3 -10 0 -22 7 -13 6 -30 13 -38 15
-30 6 -166 14 -171 9z m121 -219 c19 -6 48 -24 63 -40 30 -33 60 -94 52 -107
-3 -5 -1 -11 4 -15 6 -3 8 -11 6 -18 -3 -7 -6 -34 -9 -60 -5 -60 -9 -64 -34
-36 -12 12 -27 19 -36 16 -9 -4 -16 -3 -16 1 0 4 -40 7 -90 7 -49 0 -90 -1
-90 -3 0 -12 27 -48 70 -94 27 -29 45 -55 39 -57 -18 -6 -99 10 -99 20 0 5 -8
9 -17 9 -21 0 -54 48 -72 103 -18 55 -4 197 20 197 5 0 9 6 9 14 0 7 16 26 35
40 19 15 35 25 35 22 0 -3 10 -1 23 4 28 11 63 10 107 -3z"/>
<path d="M2064 791 c-2 -3 -18 -6 -35 -7 -67 -5 -209 -101 -209 -140 0 -8 -4
-14 -10 -14 -5 0 -9 -3 -8 -7 1 -5 -5 -21 -12 -38 -13 -31 -18 -174 -7 -212 8
-29 39 -86 52 -95 6 -4 6 -8 1 -8 -5 0 4 -10 20 -22 16 -12 31 -25 34 -29 5
-7 68 -40 72 -38 2 0 17 -5 33 -12 35 -14 205 -18 205 -5 0 5 3 7 6 3 7 -6 80
20 103 38 38 28 101 96 101 109 0 12 -18 22 -60 31 -8 2 -38 11 -67 20 -51 16
-53 16 -75 -5 -60 -57 -153 -46 -189 23 -6 9 -6 17 -2 16 4 -1 10 -1 13 1 19
7 80 3 80 -5 0 -7 3 -7 8 0 4 6 21 10 37 10 17 0 33 -4 37 -10 5 -7 8 -7 8 0
0 6 28 10 65 10 36 0 65 -4 65 -8 0 -5 5 -5 12 -1 6 4 29 6 50 6 47 -2 56 16
51 92 -5 85 -32 146 -91 204 -29 28 -59 52 -67 52 -8 0 -15 5 -15 11 0 5 -3 8
-7 6 -5 -3 -19 0 -33 6 -14 5 -33 12 -42 13 -32 7 -119 10 -124 5z m99 -187
c14 -11 27 -29 29 -40 3 -17 -4 -19 -82 -20 -47 0 -88 1 -93 3 -11 7 24 60 46
70 32 14 72 9 100 -13z"/>
<path d="M2442 770 c-1 -19 188 -582 200 -595 14 -15 228 -13 244 3 11 10 33
70 38 102 1 3 4 10 7 15 15 25 161 477 156 482 -7 7 -207 10 -207 3 -1 -3 -25
-98 -54 -212 l-53 -207 -49 200 c-26 110 -52 205 -55 211 -5 7 -48 12 -116 12
-91 1 -110 -2 -111 -14z"/>
<path d="M4032 779 c-15 -6 -17 -28 -15 -230 1 -190 5 -264 13 -264 1 0 3 -8
5 -17 6 -32 45 -76 84 -95 30 -15 55 -19 103 -17 57 3 99 9 106 14 1 2 5 3 10
4 19 5 69 36 86 55 l20 22 12 -30 c19 -44 55 -63 127 -66 93 -3 97 2 97 112 0
76 -3 93 -15 93 -8 0 -16 3 -17 8 -12 57 -15 176 -5 190 5 6 6 12 1 12 -5 0
-9 47 -8 105 1 70 -3 105 -10 106 -53 4 -200 3 -207 -2 -5 -3 -9 -89 -10 -192
l-2 -188 -29 -24 c-37 -31 -88 -33 -113 -5 -17 19 -19 41 -19 215 -1 123 -5
195 -11 196 -55 4 -190 3 -203 -2z"/>
<path d="M4769 776 c-5 -6 -9 -134 -9 -310 l0 -301 113 0 112 0 3 308 c1 169
-1 307 -5 308 -53 6 -206 2 -214 -5z"/>
<path d="M5103 782 c-22 -3 -23 -8 -23 -81 l0 -78 113 1 c112 2 146 -2 130
-13 -7 -5 -55 -62 -178 -210 -11 -13 -35 -40 -52 -60 -30 -33 -33 -41 -33
-106 l0 -70 257 1 c142 1 262 2 266 3 4 0 6 36 5 78 l-3 78 -135 1 c-74 1
-136 2 -138 3 -2 0 3 7 10 15 19 19 57 63 108 126 25 30 49 60 55 66 81 88 89
104 92 169 2 40 -1 66 -8 71 -12 7 -423 12 -466 6z"/>
</g>
</svg>
